<svg xmlns="http://www.w3.org/2000/svg"><symbol id="instagram" viewBox="0 0 256 256"><path d="M197.5 75.4a30.1 30.1 0 0 0-16.9-16.9c-3.2-1.2-7.9-2.6-16.6-3s-12.2-.6-36-.6-26.6.1-36 .6-13.4 1.8-16.6 3a30.1 30.1 0 0 0-16.9 16.9c-1.2 3.2-2.6 7.9-3 16.6s-.6 12.2-.6 36 .1 26.6.6 36 1.8 13.4 3 16.6a30.1 30.1 0 0 0 16.9 16.9c3.2 1.2 7.9 2.6 16.6 3s12.2.6 36 .6 26.6-.1 36-.6 13.4-1.8 16.6-3a30.1 30.1 0 0 0 16.9-16.9c1.2-3.2 2.6-7.9 3-16.6s.6-12.2.6-36-.1-26.6-.6-36-1.8-13.4-3-16.6zM128 173.8a45.8 45.8 0 1 1 45.8-45.8 45.8 45.8 0 0 1-45.8 45.8zm47.6-82.7a10.7 10.7 0 1 1 10.7-10.7 10.7 10.7 0 0 1-10.7 10.7z"/><path d="M234.3 1H21.7A20.7 20.7 0 0 0 1 21.7v212.6A20.7 20.7 0 0 0 21.7 255h212.6a20.7 20.7 0 0 0 20.7-20.7V21.7A20.7 20.7 0 0 0 234.3 1zm-17.7 163.7a65 65 0 0 1-4.2 21.7 44.7 44.7 0 0 1-26 26 65 65 0 0 1-21.7 4.2c-9.5.4-12.5.5-36.7.5s-27.2-.1-36.7-.5a65 65 0 0 1-21.7-4.2 44.7 44.7 0 0 1-26-26 65 65 0 0 1-4.2-21.7c-.4-9.5-.5-12.5-.5-36.7s.1-27.2.5-36.7a65 65 0 0 1 4.2-21.7 44.7 44.7 0 0 1 26-26 65 65 0 0 1 21.7-4.2c9.5-.4 12.5-.5 36.7-.5s27.2.1 36.7.5a65 65 0 0 1 21.7 4.2 44.7 44.7 0 0 1 26 26 65 65 0 0 1 4.2 21.7c.4 9.5.5 12.5.5 36.7s-.1 27.2-.5 36.7z"/><circle cx="128" cy="128" r="29.7"/></symbol><symbol id="facebook" viewBox="0 0 256 256"><path d="M234.3 1H21.7A20.7 20.7 0 0 0 1 21.7v212.6A20.7 20.7 0 0 0 21.7 255h212.6a20.7 20.7 0 0 0 20.7-20.7V21.7A20.7 20.7 0 0 0 234.3 1zm-25.5 127H179v81h-35v-81h-16v-26h16V84.3c0-12.2 3-21.6 8.9-27.8s15.6-9.5 28.8-9.5H213v29h-25.5c-3.6 0-5.9.7-7 2.5s-1.5 4.6-1.5 8.7V102h34.5z"/></symbol><symbol id="youtube" viewBox="0 0 256 256"><path d="M234.3 1H21.7A20.7 20.7 0 0 0 1 21.7v212.6A20.7 20.7 0 0 0 21.7 255h212.6a20.7 20.7 0 0 0 20.7-20.7V21.7A20.7 20.7 0 0 0 234.3 1zM224 132.7a274.1 274.1 0 0 1-2 30.8s-2.1 13.1-7.8 18.9c-7.2 7.6-15.3 7.6-19 8.1-26.7 1.9-66.7 1.9-66.7 1.9s-49.5-.4-64.8-1.9c-4.2-.8-13.8-.5-21-8.1-5.7-5.8-7.7-18.9-7.7-18.9a274.1 274.1 0 0 1-2-30.8v-14.5a277 277 0 0 1 2-30.9s2-13.1 7.8-18.9c7.2-7.6 15.3-7.8 19-8.2 26.7-1.9 66.7-2.2 66.7-2.2s40 .3 66.7 2.2c3.7.4 11.9.7 19.1 8.3 5.7 5.8 7.7 18.9 7.7 18.9a274.1 274.1 0 0 1 2 30.8z"/><path d="M109 150.2l51.5-26.7L109 96.7v53.5z"/></symbol></svg>